<?xml version="1.0" encoding="UTF-8"?>
<svg width="184px" height="62px" viewBox="0 0 184 62" version="1.1" xmlns="http://www.w3.org/2000/svg" xmlns:xlink="http://www.w3.org/1999/xlink">
    <!-- Generator: Sketch 49.3 (51167) - http://www.bohemiancoding.com/sketch -->
    <title>Logo / dark</title>
    <desc>Created with Sketch.</desc>
    <defs>
        <polygon id="path-1" points="0.000248128342 0.935081381 170.819243 0.935081381 170.819243 54.1176471 0.000248128342 54.1176471"></polygon>
        <polygon id="path-3" points="0.142919786 0.802065699 8.28516578 0.802065699 8.28516578 17.2952691 0.142919786 17.2952691"></polygon>
        <polygon id="path-5" points="0.102085561 0.802065699 8.24433155 0.802065699 8.24433155 17.2952691 0.102085561 17.2952691"></polygon>
    </defs>
    <g id="Home" stroke="none" stroke-width="1" fill="none" fill-rule="evenodd">
        <g id="Home/Plattform/Index" transform="translate(-56.000000, -45.000000)">
            <g id="Hero" transform="translate(56.000000, 20.000000)">
                <g id="Logo-/-light" transform="translate(0.000000, 25.000000)">
                    <g id="Logo">
                        <path d="M182.362817,37.8946459 C181.875411,38.1753779 181.305522,38.3804344 180.708137,38.5195799 C180.110753,38.6562842 179.480875,38.7221952 178.870993,38.7221952 C177.838693,38.7221952 176.893876,38.522021 176.204009,38.1973483 C176.506451,37.5553262 176.778898,36.7839233 176.781398,36.1858419 C176.781398,35.9392859 176.741405,35.7171414 176.611431,35.546261 C176.481456,35.3753806 176.266497,35.2801758 175.986552,35.282617 C175.331678,35.2972638 174.90926,35.9466094 174.616817,36.71313 C174.326873,37.4894152 174.181901,38.4219339 174.181901,39.1030144 C174.179401,39.9256814 174.476844,40.5066748 174.95925,40.8655236 C175.441657,41.2243724 176.089032,41.3635179 176.788896,41.3635179 C179.435884,41.3610768 181.225537,39.9720633 181.507982,39.7352718 C182.097868,39.8768585 182.615268,40.4090288 182.615268,41.1633437 C182.615268,42.335095 181.77793,43.2798195 180.338209,43.946253 C178.905986,44.6078043 176.893876,44.9715354 174.626815,44.9715354 C169.735262,44.9568885 167.21325,43.2749372 167.203252,39.6254202 C167.223248,34.7162705 169.377831,31.5110425 177.293798,31.486631 C178.973473,31.486631 180.338209,31.7234224 181.388006,32.1335354 C181.740437,32.2677985 182.055377,32.424032 182.332823,32.5949124 C183.450106,33.2833163 183.9975,34.2207174 184,35.299705 C183.9975,36.4885443 183.342627,37.3307406 182.362817,37.8946459 M148.759323,42.0738921 C148.754324,44.3881009 146.939675,45.2473852 144.530142,45.2620321 C142.308072,45.2473852 140.713381,44.5174818 140.705882,42.4132118 C140.705882,39.8988288 142.895458,39.1323082 144.932564,39.1201024 C147.257114,39.1371905 148.749325,39.9378872 148.759323,42.0738921 M153.845838,39.6180967 C154.940626,39.6180967 156.075407,39.8670939 156.950237,40.2991772 L156.742777,40.970493 L156.737778,40.987581 L156.737778,41.0046691 C156.737778,41.4928988 157.045219,41.9103352 157.530125,41.9103352 C157.860061,41.9103352 158.140007,41.8151304 158.32997,41.6247208 C158.522433,41.4343112 158.614915,41.1560203 158.614915,40.8215829 C158.609916,40.2235016 158.102514,39.869535 157.430144,39.5912441 C156.412841,39.1738077 154.92063,38.8906345 153.693368,38.2998765 C152.466105,37.7017951 151.523788,36.8376286 151.518789,35.2215882 C151.521288,33.9668379 152.353627,33.0489661 153.850837,32.4191497 C155.345548,31.7917746 157.487633,31.486631 160.009645,31.486631 C162.294203,31.486631 163.981376,31.7624808 165.083662,32.2629162 C166.185949,32.7706751 166.69585,33.4761671 166.713347,34.3891566 C166.708348,35.1800887 166.323422,35.6658773 165.713541,35.9881089 C165.103659,36.3054582 164.266321,36.4275156 163.423984,36.4275156 C162.164228,36.4299568 160.879476,36.1370189 160.2421,35.8074639 L160.427064,35.2606466 L160.432063,35.2411174 L160.432063,35.2215882 C160.432063,34.7650935 160.067134,34.4233327 159.584727,34.4233327 L158.982344,34.5795662 C158.784882,34.6991825 158.627412,34.9262093 158.632412,35.2484409 C158.637411,35.809905 159.137314,36.154107 159.797186,36.4275156 C160.794493,36.8425109 162.259209,37.1378898 163.466476,37.6773836 C164.678741,38.2217598 165.596063,38.9687512 165.598563,40.2991772 C165.593564,41.9176586 164.876203,43.057675 163.39399,43.8315191 C161.911777,44.6004808 159.654714,44.9715354 156.622801,44.9715354 C154.848144,44.9715354 153.26845,44.6981268 152.146167,44.1952502 C151.021385,43.6874913 150.371511,42.9722348 150.371511,42.0738921 C150.37651,40.3235886 152.003695,39.6278613 153.845838,39.6180967" id="Fill-1" fill="#E11F87"></path>
                        <g id="Group-5" transform="translate(0.000000, 7.871658)">
                            <mask id="mask-2" fill="white">
                                <use xlink:href="#path-1"></use>
                            </mask>
                            <g id="Clip-4"></g>
                            <path d="M123.746815,48.4827566 C125.12889,48.4101227 125.731842,47.548534 125.726879,46.8522501 C125.726879,46.3989141 125.481232,45.9781383 125.019713,45.9756336 C124.674815,45.9706244 124.369617,46.1359292 124.156227,46.5041081 C123.937874,46.872287 123.769147,47.4408354 123.585532,48.3249657 L123.548312,48.4952797 L123.722002,48.4877659 C123.731927,48.4877659 123.73689,48.4827566 123.746815,48.4827566 Z M140.056291,49.9705 C139.502965,49.9705 139.140697,49.8477737 138.582409,49.5973118 C138.862794,49.1640128 139.103478,48.5103074 139.105959,48.0194022 L139.105959,47.9868422 L138.835499,47.5310017 L138.79828,47.4708908 L138.728804,47.4708908 C138.470751,47.4859185 137.92735,47.7138388 137.763585,48.0244115 C137.294622,48.9736618 136.907542,50.9973935 136.905061,52.5778077 C136.905061,52.9885651 136.929874,53.4018271 136.979499,53.8175938 C136.081275,54.0154586 135.292227,54.118148 134.612355,54.118148 C132.428826,54.098111 131.47105,53.166393 131.4512,51.1226244 C131.448719,48.8359078 132.59259,46.6644037 132.595072,43.8116434 L132.595072,43.5511631 C133.666986,43.3132243 134.567692,43.1879934 135.289745,43.1879934 C137.210259,43.2080303 137.905018,43.9393789 137.919906,45.1992019 C137.919906,45.6325009 137.840505,46.1133877 137.671778,46.6343483 L137.900056,46.7320284 C139.110922,44.4678534 140.770901,43.157938 142.130644,43.1654518 C143.569788,43.1729657 144.304248,44.1397484 144.314173,45.3945622 C144.309211,47.8641159 142.401104,49.9654907 140.056291,49.9705 Z M123.473874,49.6348811 C123.58305,50.8070425 124.528419,51.2152953 125.545745,51.2027722 C127.555585,51.2002676 129.180826,50.2384941 129.557981,49.9955461 C129.969874,50.278568 130.205596,50.6567654 130.208077,51.1226244 C130.208077,52.1920965 129.433917,52.9334635 128.225532,53.4243687 C127.019628,53.9102647 125.406794,54.118148 123.828697,54.118148 C120.29535,54.1056249 117.960462,52.6354139 117.957981,49.7525982 C117.977831,45.7401995 120.029852,43.1178641 125.947713,43.1003317 C127.721831,43.1003317 129.05428,43.4459691 129.932655,44.0070036 C130.81351,44.5705427 131.242772,45.3294421 131.242772,46.2060585 C131.242772,47.3832292 130.461168,48.2322948 129.299927,48.808357 C128.143649,49.3769054 126.630066,49.6499088 125.247991,49.6499088 C124.662409,49.6499088 124.121489,49.5847887 123.617788,49.4971271 L123.456505,49.4720809 L123.473874,49.6348811 Z M44.5889112,37.6928607 C35.3312428,37.6928607 30.6416171,34.2014227 30.6416171,27.3137221 C30.6416171,19.9576579 32.7953711,11.5145894 49.603585,11.5145894 C57.3700021,11.5145894 62.1936171,14.3473128 62.1936171,18.9082228 C62.1936171,23.4666283 57.2037561,25.5429569 52.5637561,25.5429569 C50.6506866,25.5429569 48.8914567,25.1973196 47.5738952,24.5661558 C47.9212749,23.7972379 48.6482909,22.031482 48.6482909,20.6314003 C48.6482909,19.4567343 48.1421091,18.8606351 47.1446332,18.8606351 C44.8767401,18.8606351 43.7403123,23.6319331 43.7403123,26.3018563 C43.7403123,29.1395889 45.4821733,30.7024708 48.6482909,30.7024708 C53.5736385,30.7024708 56.9258524,28.062603 57.5461733,27.5341285 C58.5783872,27.7996181 59.5882695,28.8089793 59.5882695,30.2967226 C59.5882695,34.7223833 53.5587508,37.6928607 44.5889112,37.6928607 Z M58.3277775,46.9323979 L58.1863444,46.3914003 C58.0796492,46.2411232 57.6206118,46.1609754 57.394815,46.16348 C56.8538952,46.1760031 56.5164406,46.7245145 56.2856813,47.3556784 C56.0549219,47.9968607 55.9383016,48.7607693 55.9383016,49.326813 C55.9358203,50.0055646 56.1765048,50.4939652 56.5660663,50.7920148 C56.9531465,51.0900644 57.4717348,51.2027722 58.0300235,51.2027722 C60.2011465,51.2002676 61.6154781,50.0155831 61.7767615,49.8753245 C62.2333176,49.9905369 62.6278417,50.4113128 62.6278417,51.0174304 C62.6278417,51.9666808 61.9727829,52.7305894 60.8363551,53.2765962 C59.7048898,53.8200984 58.1119059,54.118148 56.3129754,54.118148 C52.4372107,54.1006157 50.4571465,52.733094 50.4447401,49.7525982 C50.4670717,45.7326857 52.1568257,43.1228733 58.4319914,43.1003317 C60.2085904,43.1003317 61.5410396,43.4459691 62.4169326,44.0070036 C63.2977882,44.5705427 63.7270503,45.3294421 63.7295316,46.2060585 C63.7270503,47.1703366 63.2134246,47.8490882 62.4417455,48.3124426 C61.6725476,48.7682831 60.6477775,48.9861849 59.6850396,48.9861849 C58.8736599,48.9861849 58.419585,48.8258894 57.876184,48.5629044 C58.1119059,48.0419438 58.3252963,47.4207984 58.3277775,46.9323979 Z M69.2156492,54.118148 C65.8311786,54.1006157 63.7791572,52.733094 63.7692321,49.7525982 C63.7915636,45.730181 65.5507936,43.1203687 71.2254888,43.1003317 C74.545446,43.1128548 76.664462,44.5705427 76.6719059,47.4909278 C76.6520556,51.505831 74.895307,54.0956064 69.2156492,54.118148 Z M114.461852,54.118148 C112.387499,54.1031203 111.206409,53.0712175 111.194002,51.0575043 C111.194002,49.5797795 111.658002,48.4376735 111.662965,47.8490882 L111.662965,47.8040051 L111.385061,47.4533585 L111.347842,47.4057707 L111.288291,47.4057707 C110.93843,47.4132846 110.702708,47.7163434 110.516612,48.1145777 C110.449617,48.2623502 110.382622,48.4301596 110.325553,48.6155014 C109.916141,49.8903522 109.764783,51.7963667 109.762302,52.4024844 L109.762302,52.404989 C109.762302,52.838288 109.792077,53.2866147 109.861553,53.7574829 C109.037767,53.9929171 108.258644,54.118148 107.601104,54.118148 C105.526751,54.1031203 104.348141,53.0712175 104.335735,51.0575043 C104.335735,49.5797795 104.794772,48.4376735 104.799735,47.8490882 L104.799735,47.8040051 L104.51935,47.4533585 L104.479649,47.4057707 L104.42258,47.4057707 C104.057831,47.4132846 103.819628,47.7263619 103.638494,48.1346147 C103.100056,49.3769054 102.988398,51.8464591 102.985917,52.5302199 C102.985917,52.9459866 103.013211,53.3542394 103.065318,53.7524737 C102.167093,53.9503386 101.375564,54.0555325 100.698173,54.0555325 C98.5096813,54.032991 97.5568684,53.1062822 97.5370182,51.0575043 C97.5345369,48.7707877 98.6784086,46.6017882 98.6808898,43.7440187 L98.6808898,43.4885476 C99.732954,43.2481042 100.626216,43.1228733 101.353232,43.1228733 C103.273745,43.1404056 103.990836,43.8617357 104.005724,45.0489248 L103.941211,45.6775841 L103.894066,46.1183969 L104.162045,45.7652457 C105.549082,43.9443881 106.933639,43.1003317 108.447221,43.1003317 C110.117125,43.1128548 110.769703,43.9569112 110.782109,45.0263833 L110.715114,45.6575471 L110.66797,46.1008646 L110.93843,45.7452088 C112.216291,44.057096 113.814237,43.1003317 115.30797,43.1003317 C116.774409,43.1128548 117.737147,43.7891018 117.749553,45.3519837 C117.754516,47.3982569 116.628013,49.654918 116.625532,52.4024844 L116.625532,52.404989 C116.625532,52.838288 116.655307,53.2991378 116.722302,53.7574829 C115.903478,53.9929171 115.119393,54.118148 114.461852,54.118148 Z M24.5326973,21.0872408 C22.0811893,21.0872408 20.0242053,20.5186925 18.8580021,19.9200887 C19.0639487,19.4943035 19.1731251,19.0885554 19.1731251,18.7579457 C19.1731251,17.8512739 18.2376813,16.964639 17.3096813,16.964639 C16.4784513,16.964639 15.5057882,17.6133351 15.5057882,18.8080381 C15.5057882,20.5337202 17.8704513,21.2675734 20.607307,22.116639 C24.3490824,23.2762773 28.5945583,24.5912019 28.5945583,28.6286468 C28.5945583,34.8125495 23.2374674,37.6928607 11.7392,37.6928607 C4.71716791,37.6928607 0.000248128342,35.4336949 0.000248128342,32.072497 C0.000248128342,27.6543502 4.99507166,27.3112175 6.52602353,27.3112175 C8.5954139,27.3112175 10.4216385,27.7720673 12.0419166,28.5860683 C11.8012321,29.0894965 11.6771679,29.5628694 11.6771679,29.9936638 C11.6771679,31.0180527 12.5753925,31.9798262 13.446323,31.9798262 C14.7489968,31.9798262 15.4983444,30.9905019 15.4983444,29.6430172 C15.4983444,27.8371874 13.2006759,27.130885 10.5382588,26.3093702 C6.80640856,25.1572457 2.15896471,23.724604 2.15896471,18.7579457 C2.15896471,14.1544572 7.97261176,11.5145894 18.1111358,11.5145894 C26.2993711,11.5145894 30.649061,13.4606779 30.7011679,17.1374577 C30.7011679,20.5762987 26.8353283,21.0872408 24.5326973,21.0872408 Z M94.1054032,54.118148 C92.0310503,54.1031203 90.8499594,53.0712175 90.8375529,51.0575043 C90.8375529,49.5797795 91.3015529,48.4376735 91.3065155,47.8490882 L91.3065155,47.8040051 L91.0236492,47.4533585 L90.9864299,47.4057707 L90.9268791,47.4057707 C90.5794995,47.4132846 90.3437775,47.7163434 90.1576813,48.1145777 C90.0906866,48.2623502 90.023692,48.4301596 89.9666225,48.6155014 C89.5572107,49.8903522 89.4058524,51.7963667 89.4033711,52.4024844 L89.4033711,52.404989 C89.4033711,52.838288 89.4331465,53.2866147 89.5051037,53.7574829 C88.6813176,53.9929171 87.8997134,54.118148 87.2446545,54.118148 C85.1703016,54.1031203 83.991692,53.0712175 83.9792856,51.0575043 C83.9792856,49.5797795 84.4358417,48.4376735 84.4408043,47.8490882 L84.4408043,47.8040051 L84.1629005,47.4533585 L84.1256813,47.4057707 L84.0661305,47.4057707 C83.7013818,47.4132846 83.4631786,47.7263619 83.2820449,48.1346147 C82.7436064,49.3769054 82.6319487,51.8464591 82.6294674,52.5302199 C82.6294674,52.943482 82.6517989,53.3542394 82.7088684,53.7524737 C81.8081626,53.9503386 81.0191144,54.0555325 80.3392428,54.0555325 C78.1532321,54.032991 77.197938,53.1062822 77.1780877,51.0575043 C77.1731251,48.7707877 78.3194781,46.6017882 78.3219594,43.7440187 L78.3219594,43.4885476 C79.3740235,43.2481042 80.2697668,43.1228733 80.9943016,43.1228733 C82.914815,43.1404056 83.6319059,43.8617357 83.6467936,45.0489248 L83.5822802,45.6775841 L83.5351358,46.1183969 L83.8031144,45.7652457 C85.1901519,43.9443881 86.574708,43.1003317 88.0907722,43.1003317 C89.7606759,43.1128548 90.4082909,43.9544066 90.4231786,45.0263833 L90.3586652,45.6575471 L90.3115209,46.0983599 L90.5819807,45.7452088 C91.8548791,44.057096 93.4577882,43.1003317 94.9515209,43.1003317 C96.4179594,43.1128548 97.378216,43.7891018 97.3906225,45.3519837 C97.395585,47.3982569 96.2715636,49.654918 96.2690824,52.4024844 L96.2690824,52.404989 C96.2690824,52.838288 96.2963765,53.2991378 96.3658524,53.7574829 C95.5445476,53.9929171 94.7629433,54.118148 94.1054032,54.118148 Z M129.461211,20.5562617 C129.461211,19.2738971 128.766451,18.414813 127.7392,18.414813 C125.977489,18.414813 125.114002,19.8349316 124.190965,24.2605923 L124.111564,24.6262666 L124.481275,24.6062297 C127.902965,24.4284018 129.461211,22.3821285 129.461211,20.5562617 Z M164.603628,45.9581013 C164.256248,45.9530921 163.95105,46.1183969 163.735179,46.491585 C163.514344,46.8622685 163.343136,47.4358262 163.159521,48.3249657 L163.122302,48.4952797 L163.295991,48.4877659 C163.305917,48.4877659 163.31336,48.4827566 163.323286,48.4827566 C164.712804,48.4076181 165.320719,47.5410201 165.315756,46.8422316 C165.315756,46.3863911 165.067628,45.9606059 164.603628,45.9581013 Z M104.869211,0.935081381 C109.824334,0.935081381 112.442088,3.08905318 112.442088,7.16406728 C112.442088,9.80894429 111.486794,13.9465738 110.471949,18.3271514 C109.258601,23.5843454 107.879007,29.5428325 107.879007,34.1463211 C107.879007,35.0880576 107.953446,36.0423172 108.094879,36.9890629 C105.941125,37.4649404 104.09505,37.6928607 102.462366,37.6928607 C97.3285904,37.6928607 94.9341519,35.4236764 94.9341519,30.5546983 C94.9341519,27.9148305 95.8671144,24.0652321 96.8497027,19.9927226 C98.0680128,14.9559351 99.4476064,9.25041439 99.4476064,4.38143627 C99.4476064,3.32949655 99.3954995,2.4503755 99.2788791,1.63887914 C101.437596,1.16550627 103.268783,0.935081381 104.869211,0.935081381 Z M129.892954,11.5145894 C137.65689,11.5145894 142.482986,14.3473128 142.482986,18.9082228 C142.482986,24.295657 135.31704,27.1133526 128.237938,27.1133526 C127.017147,27.1133526 125.78643,27.0031494 124.364655,26.7627061 L124.044569,26.7076045 L124.076826,27.0332049 C124.310066,29.4351339 125.989895,30.7024708 128.93766,30.7024708 C133.733981,30.7024708 137.689147,28.3130649 138.470751,27.8121412 C139.488077,28.4883881 140.026516,29.4326293 140.026516,30.5546983 C140.026516,35.8169015 132.198066,37.6928607 124.875799,37.6928607 C116.144163,37.6928607 110.928505,33.8132068 110.928505,27.3137221 C110.928505,16.6816171 117.131713,11.5145894 129.892954,11.5145894 Z M70.7664513,45.920532 C70.4017027,45.9130182 70.0865797,46.0983599 69.8657455,46.5141266 C69.6399487,46.9298932 69.458815,47.5760848 69.2603123,48.5904552 L69.2603123,48.5879506 L69.2603123,48.5904552 C69.074216,49.5096502 68.9824086,50.1207771 68.9824086,50.5390483 C68.9824086,50.8245748 69.0196278,51.0324581 69.1387294,51.1827352 L69.6523551,51.3856093 C70.019585,51.3906186 70.3471144,51.210286 70.5877989,50.7870055 C70.833446,50.3612204 71.0369112,49.6924873 71.2503016,48.6430522 C71.3123337,48.3274703 71.3545155,48.0745038 71.3892535,47.824042 C71.4488043,47.44334 71.4860235,47.1077211 71.4860235,46.8597639 C71.4860235,46.5391728 71.4413604,46.3087479 71.3123337,46.1409385 L70.7664513,45.920532 Z M168.873917,48.808357 C167.72012,49.3769054 166.204056,49.6499088 164.824462,49.6499088 C164.236398,49.6499088 163.697959,49.5847887 163.191778,49.4971271 L163.030494,49.4720809 L163.047863,49.6348811 C163.15704,50.8070425 164.10489,51.2152953 165.119735,51.2027722 C167.129574,51.2002676 168.757296,50.2359895 169.13197,49.9955461 C169.543863,50.278568 169.782066,50.6567654 169.784548,51.1226244 C169.784548,52.1920965 169.010387,52.9334635 167.802002,53.4243687 C166.59858,53.9102647 164.983264,54.118148 163.402687,54.118148 C159.87182,54.1056249 157.539414,52.6354139 157.534451,49.7525982 C157.554302,45.7401995 159.606323,43.1178641 165.521703,43.1003317 C167.29582,43.1003317 168.630751,43.4459691 169.506644,44.0070036 C170.387499,44.5705427 170.816761,45.3294421 170.819243,46.2060585 C170.819243,47.3832292 170.035157,48.2322948 168.873917,48.808357 Z M152.011114,46.9323979 L151.872163,46.3914003 C151.765467,46.2411232 151.581852,46.1609754 151.356056,46.16348 C150.815136,46.1760031 150.28166,46.7245145 150.050901,47.3556784 C149.820141,47.9968607 149.703521,48.7607693 149.703521,49.326813 C149.70104,50.0055646 149.941724,50.4939652 150.331286,50.7920148 C150.718366,51.0900644 151.236954,51.2027722 151.795243,51.2027722 C153.966366,51.2002676 155.380697,50.0155831 155.541981,49.8753245 C155.996056,49.9905369 156.39058,50.4113128 156.39058,51.0174304 C156.39058,51.9666808 155.738002,52.7305894 154.604056,53.2765962 C153.470109,53.8200984 151.877125,54.118148 150.078195,54.118148 C146.20243,54.1006157 144.222366,52.733094 144.209959,49.7525982 C144.232291,45.7326857 145.922045,43.1228733 152.197211,43.1003317 C153.97381,43.1003317 155.306259,43.4459691 156.182152,44.0070036 C157.063007,44.5705427 157.49227,45.3294421 157.494751,46.2060585 C157.49227,47.1703366 156.978644,47.8490882 156.206965,48.3124426 C155.437767,48.7682831 154.412997,48.9861849 153.447778,48.9861849 C152.64136,48.9861849 152.100441,48.8258894 151.559521,48.5629044 C151.797724,48.0419438 152.008633,47.4207984 152.011114,46.9323979 Z M95.2021305,14.9333935 C93.6935102,20.7416035 91.9839059,27.321236 91.9839059,33.0843629 C91.9839059,34.3992875 92.0732321,35.6816521 92.2518845,36.8938874 C90.0981305,37.4248665 88.1354353,37.6928607 86.4109433,37.6928607 C81.8180877,37.6928607 79.4881626,35.7142122 79.4881626,31.817026 C79.4881626,31.468884 79.4881626,31.0731543 79.5402695,30.6849385 L79.6742588,29.6229803 L79.0861947,30.5121198 C75.9845904,35.2107839 72.2725904,37.6928607 68.3571251,37.6928607 C64.2034567,37.6928607 62.183692,35.1907469 62.183692,30.0462608 C62.183692,14.7280148 73.5876706,11.5145894 83.1554995,11.5145894 C87.6987294,11.5145894 94.3932321,12.3135627 95.8323765,12.488886 C95.6289112,13.2903638 95.4155209,14.1068694 95.2021305,14.9333935 Z M80.6369968,17.7636123 C77.6197561,17.7636123 76.3195636,24.3357309 76.3195636,26.4270872 C76.3195636,27.3963745 76.7661947,27.9549044 77.5527615,27.9549044 C79.4236492,27.9549044 80.2722481,24.2305369 81.5625155,18.6001548 L81.636954,18.2745544 L81.6989861,18.0040556 L81.4310075,17.9414402 L80.6369968,17.7636123 Z" id="Fill-3" fill="#FFFFFF" mask="url(#mask-2)"></path>
                        </g>
                        <path d="M32.4599181,14.7593583 C30.6221379,14.7593583 29.5174613,13.7897614 29.5174613,11.9829011 C29.5174613,10.677381 29.9216725,9.65179687 29.9216725,9.18608499 C29.9216725,9.00030922 29.8664386,8.90614889 29.7007372,8.90614889 C28.7466983,8.90614889 28.5408267,12.7081901 28.5408267,13.2680623 C28.5408267,13.677787 28.5809968,14.0696975 28.6362306,14.423435 C27.8052125,14.6092107 27.0896833,14.7033711 26.4645368,14.7033711 C24.536374,14.7033711 23.6149733,13.8075755 23.6149733,11.9829011 C23.6149733,9.80194442 25.2719882,5.58763365 25.2719882,2.34546462 C25.2719882,1.97391307 25.2519032,1.61763076 25.1966693,1.26389332 C26.0251768,1.07811754 26.7231316,0.983957219 27.3482781,0.983957219 C29.2764409,0.983957219 30.215416,1.86193863 30.215416,3.3710487 C30.215416,4.19049802 29.7584816,6.12969174 29.11325,7.67697492 C30.4012026,5.81158253 31.7243039,4.936146 33.1955323,4.936146 C34.4985485,4.936146 35.4224599,5.58763365 35.4224599,7.00512828 C35.4224599,8.83234756 34.4458253,10.7893554 34.4458253,13.1560879 C34.4458253,13.5658125 34.4659104,13.9958962 34.5387186,14.423435 C33.7830194,14.6473838 33.0674902,14.7593583 32.4599181,14.7593583" id="Fill-6" fill="#5AAAD7"></path>
                        <path d="M42.7579012,9.4994796 C43.6410497,9.4994796 44.2587711,10.0442881 44.2587711,10.8045437 C44.2587711,12.8723397 42.1570706,14.7593583 38.8537091,14.7593583 C36.5010593,14.7593583 35.4224599,13.6895525 35.4224599,12.0749381 C35.4224599,9.98980727 36.6627286,7.26824104 36.6627286,4.4401895 C36.6627286,4.03901231 36.624121,3.62297671 36.5734485,3.22427592 C37.3504262,3.04349855 38.0574276,2.95187166 38.6413674,2.95187166 C40.4969444,2.95187166 41.3993968,3.8235653 41.3993968,5.32674156 C42.3694123,5.32674156 43.3394279,5.30940674 44.0464294,5.21777985 C44.171904,5.4728493 44.2780749,5.81706923 44.2780749,6.16128916 C44.2780749,6.94135592 43.8171968,7.77590353 42.3501086,7.77590353 C41.9640327,7.77590353 41.5007417,7.68675304 41.097775,7.57779134 C40.7792624,9.11811363 40.3183844,10.695582 40.3183844,11.4409791 C40.3183844,11.6935721 40.4607498,11.8570147 40.6537878,11.8570147 C41.0615804,11.8570147 41.7130834,11.2403905 41.9978143,9.62577612 C42.2632415,9.53662563 42.5286686,9.4994796 42.7579012,9.4994796" id="Fill-8" fill="#5AAAD7"></path>
                        <path d="M52.597059,9.4994796 C53.4804483,9.4994796 54.1007516,10.0442881 54.1007516,10.8045437 C54.1007516,12.8723397 51.9960647,14.7593583 48.6893892,14.7593583 C46.3385119,14.7593583 45.2620321,13.6895525 45.2620321,12.0749381 C45.2620321,9.98980727 46.4978116,7.26824104 46.4978116,4.4401895 C46.4978116,4.03901231 46.4640207,3.62297671 46.4109208,3.22427592 C47.1881102,3.04349855 47.8953043,2.95187166 48.4769896,2.95187166 C50.3354861,2.95187166 51.2357707,3.8235653 51.2357707,5.32674156 C52.2084643,5.32674156 53.1811579,5.30940674 53.888352,5.21777985 C54.0114473,5.4728493 54.1176471,5.81706923 54.1176471,6.16128916 C54.1176471,6.94135592 53.6566434,7.77590353 52.1915689,7.77590353 C51.8005606,7.77590353 51.3419705,7.68675304 50.9364804,7.57779134 C50.617881,9.11811363 50.1568773,10.695582 50.1568773,11.4409791 C50.1568773,11.6935721 50.2992816,11.8570147 50.4947858,11.8570147 C50.9002759,11.8570147 51.5543701,11.2403905 51.8391787,9.62577612 C52.1022645,9.53662563 52.3653504,9.4994796 52.597059,9.4994796" id="Fill-10" fill="#5AAAD7"></path>
                        <path d="M60.123602,12.0979395 C60.956286,12.0979395 61.4219816,10.2247102 61.4219816,9.45443419 C61.4219816,9.06033949 61.3283363,8.91191422 61.1435766,8.91191422 C60.791774,8.91191422 60.4779356,9.17293798 59.900878,12.0595537 C59.900878,12.0595537 59.9919924,12.0979395 60.123602,12.0979395 M56.9928113,18.6951872 C55.0439764,18.6951872 54.1176471,17.7969583 54.1176471,15.9595558 C54.1176471,13.7664444 55.785546,8.55620536 55.785546,6.26840886 C55.785546,5.89478662 55.7652984,5.53907777 55.7121484,5.18080986 C56.5271157,4.99399873 57.2686854,4.9197861 57.8811763,4.9197861 C59.8097636,4.9197861 60.733562,5.76171568 60.7740573,7.24340939 C61.8851463,5.68750304 63.180995,4.9197861 64.5350556,4.9197861 C65.8511519,4.9197861 66.9090909,5.57490456 66.9090909,7.8422286 C66.9090909,11.4786479 65.18298,14.6646732 59.344068,14.7593583 C59.1972727,15.6601462 59.0859107,16.5225482 59.0859107,17.2902652 C59.0859107,17.7022732 59.121344,18.0758955 59.177025,18.413691 C58.344341,18.6030611 57.620488,18.6951872 56.9928113,18.6951872" id="Fill-12" fill="#5AAAD7"></path>
                        <path d="M74.0656145,7.68302347 C74.0656145,7.40262115 73.8583293,7.19869219 73.5551746,7.19869219 C73.3271608,7.19869219 72.9644116,7.29046023 72.9644116,7.70086725 C72.9644116,9.06464215 77.9159382,8.65423513 77.9159382,11.3231554 C77.9159382,13.6938295 75.7731268,14.7593583 71.446047,14.7593583 C68.9042115,14.7593583 66.9090909,13.9742318 66.9090909,12.5926131 C66.9090909,11.2670749 68.1450293,10.7445069 69.474246,10.7445069 C70.2904317,10.7445069 71.1428923,10.9305921 71.7880677,11.2670749 C71.6740608,11.473553 71.6170574,11.6596381 71.6170574,11.8278795 C71.6170574,12.1439694 71.8087962,12.3886842 72.0912224,12.3886842 C72.5265215,12.3886842 72.7752638,12.1439694 72.7752638,11.6978748 C72.7752638,10.221939 67.7278677,10.8745117 67.7278677,7.68302347 C67.7278677,5.79668061 70.2489747,4.9197861 73.8583293,4.9197861 C77.1230721,4.9197861 78.695849,5.70491258 78.7165775,7.08653127 C78.7165775,8.27951567 77.5013677,8.63639134 76.2861579,8.63639134 C75.3352367,8.63639134 74.3687692,8.41206949 73.9127416,8.14951096 C74.0112021,7.98126957 74.0656145,7.81302818 74.0656145,7.68302347" id="Fill-14" fill="#5AAAD7"></path>
                        <path d="M82.6206082,9.400038 C81.0825052,9.400038 79.9095453,8.85062027 79.9095453,7.31474796 C79.9095453,5.48668531 81.4826621,4.9197861 82.8932151,4.9197861 C84.5063476,4.9197861 85.6042781,5.52164825 85.6042781,7.07749939 C85.6042781,8.76071555 84.2862613,9.400038 82.6206082,9.400038 M81.4276405,14.7593583 C79.8895374,14.7593583 78.7165775,14.2099406 78.7165775,12.6740682 C78.7165775,10.8460056 80.2921953,10.2791064 81.7027484,10.2791064 C83.3133799,10.2791064 84.4138113,10.8809685 84.4138113,12.4368197 C84.4138113,14.1200358 83.0932936,14.7593583 81.4276405,14.7593583" id="Fill-16" fill="#5AAAD7"></path>
                        <g id="Group-20" transform="translate(85.604278, 0.000000)">
                            <mask id="mask-4" fill="white">
                                <use xlink:href="#path-3"></use>
                            </mask>
                            <g id="Clip-19"></g>
                            <path d="M6.48452406,0.801053629 C7.35040642,0.801053629 8.28516578,1.09708419 8.28516578,2.22807273 C8.28516578,4.49004981 2.71842781,14.2185754 2.71842781,17.2573164 C2.55607487,17.2750277 2.33960428,17.2952691 2.14035294,17.2952691 C1.08013904,17.2952691 0.142919786,16.8853806 0.142919786,15.8480086 C0.142919786,13.6239841 5.81789305,4.13582521 5.81789305,0.856717494 C6.03190374,0.818764859 6.24837433,0.801053629 6.48452406,0.801053629" id="Fill-18" fill="#5AAAD7" mask="url(#mask-4)"></path>
                        </g>
                        <g id="Group-23" transform="translate(90.524064, 0.000000)">
                            <mask id="mask-6" fill="white">
                                <use xlink:href="#path-5"></use>
                            </mask>
                            <g id="Clip-22"></g>
                            <path d="M6.44368984,0.801053629 C7.30957219,0.801053629 8.24433155,1.09708419 8.24433155,2.22807273 C8.24433155,4.49004981 2.68005348,14.2185754 2.68005348,17.2573164 C2.51524064,17.2750277 2.29877005,17.2952691 2.10197861,17.2952691 C1.03930481,17.2952691 0.102085561,16.8853806 0.102085561,15.8480086 C0.102085561,13.6239841 5.77705882,4.13582521 5.77705882,0.856717494 C5.99352941,0.818764859 6.21,0.801053629 6.44368984,0.801053629" id="Fill-21" fill="#5AAAD7" mask="url(#mask-6)"></path>
                        </g>
                    </g>
                </g>
            </g>
        </g>
    </g>
</svg>